<svg width="16" height="10" viewBox="0 0 16 10" fill="none" xmlns="http://www.w3.org/2000/svg">
<path d="M4.98878 6.66615L4.96072 6.64219H4.92383H1.92031V3.56094H4.92383H4.96129L4.98953 3.53633C4.99913 3.52795 5.00689 3.51796 5.00965 3.51439L5.00996 3.514C5.01426 3.50847 5.01912 3.50185 5.02412 3.49496L5.04162 3.47062L5.06359 3.4401C5.09599 3.3954 5.14155 3.33408 5.20086 3.26146C5.31957 3.11612 5.49342 2.92547 5.72606 2.73373C6.14712 2.38669 6.76033 2.03624 7.58932 1.94383L5.95243 3.58074C5.7532 3.77997 5.7532 4.10298 5.95241 4.30222L5.95242 4.30222C6.37183 4.72163 6.92265 4.93124 7.47326 4.93121C7.97754 4.93116 8.48204 4.75486 8.88551 4.40295L10.6489 7.11566C9.97341 7.85177 9.00675 8.28281 8 8.28281C6.98888 8.28281 6.25296 7.89385 5.76297 7.49954C5.5177 7.30217 5.33418 7.10349 5.20917 6.95177C5.14671 6.87596 5.09887 6.81187 5.06511 6.76538C5.05422 6.75038 5.04537 6.73801 5.03757 6.72712C5.03284 6.72051 5.0285 6.71444 5.02433 6.70866C5.01925 6.70163 5.01435 6.69491 5.01009 6.68938L5.00971 6.68889C5.00718 6.68559 4.99896 6.67485 4.98878 6.66615ZM9.04388 2.95092L8.97317 2.88021L8.90245 2.95092L8.27264 3.58073L8.34336 3.65144L8.27264 3.58073C7.96181 3.89159 7.51309 3.98337 7.12076 3.85534L8.93122 2.04486C9.61833 2.23037 10.1134 2.5758 10.4468 2.88594C10.6179 3.04513 10.7463 3.19498 10.8361 3.30905C10.8811 3.3661 10.9163 3.41425 10.9428 3.45067C10.9451 3.45375 10.9473 3.45677 10.9494 3.45973C10.9598 3.474 10.9691 3.48679 10.9768 3.49704C10.9845 3.50731 10.9957 3.52212 11.0066 3.53273L11.0357 3.56091H11.0762H14.0797V6.64219H11.5581L10.6008 5.1695C10.6381 5.17144 10.6756 5.17241 10.7133 5.17241C11.1423 5.17241 11.5526 5.0475 11.9022 4.81469C12.1549 4.64639 12.1384 4.30537 11.9441 4.11102C11.7414 3.90839 11.431 3.93028 11.2074 4.03912C11.0556 4.11298 10.8877 4.1521 10.7133 4.1521C10.4111 4.1521 10.1276 4.03465 9.91393 3.821C9.91392 3.821 9.91392 3.821 9.91392 3.821L9.04388 2.95092ZM11.527 2.54062C10.6563 1.50879 9.35693 0.9 8 0.9C6.64307 0.9 5.34372 1.50879 4.47305 2.54062H1.58333C1.20594 2.54062 0.9 2.84656 0.9 3.22396V6.97917C0.9 7.35656 1.20594 7.6625 1.58333 7.6625H4.47305C5.34372 8.69434 6.64307 9.30313 8 9.30313C9.35693 9.30313 10.6563 8.69434 11.527 7.6625H14.4167C14.7941 7.6625 15.1 7.35656 15.1 6.97917V3.22396C15.1 2.84656 14.7941 2.54062 14.4167 2.54062H11.527Z" stroke="#A1A8B8" stroke-width="0.2"/>
</svg>
