<svg width="330" height="40" viewBox="0 0 330 40" fill="none" xmlns="http://www.w3.org/2000/svg">
<path d="M72.0896 9.37012C75.3698 9.37012 77.3874 10.717 77.9663 11.1531L80.1643 7.14671C79.0108 6.27444 76.2339 4.67102 71.8043 4.67102C63.6961 4.67102 58.3269 10.3878 58.3269 17.8191C58.3269 25.212 63.6625 30.933 71.8043 30.933C76.3471 30.933 79.0108 29.368 80.1643 28.4915L77.9998 24.5236C77.3497 24.9597 75.3698 26.2339 72.0896 26.2339C66.8295 26.2339 63.4402 22.8816 63.4402 17.7849C63.4402 12.6839 66.863 9.37012 72.0896 9.37012Z" fill="white"/>
<path d="M93.6083 15.457C92.3835 14.3281 90.6511 13.5286 88.4531 13.5286C83.8768 13.5286 80.3784 17.2784 80.3784 22.2341C80.3784 27.1897 83.7677 30.9396 88.3441 30.9396C90.7937 30.9396 92.5974 29.845 93.8223 28.3186L94.0026 30.6147H98.1847V13.8535H93.8223L93.6083 15.457ZM89.3885 26.5997C86.9724 26.5997 85.1352 24.7055 85.1352 22.2298C85.1352 19.7156 86.9724 17.8599 89.3885 17.8599C91.985 17.8599 93.6419 19.6814 93.6419 22.2298C93.6796 24.744 91.985 26.5997 89.3885 26.5997Z" fill="white"/>
<path d="M107.731 17.3511C109.569 17.3511 111.335 18.0053 112.811 18.9546L114.686 15.4227C113.21 14.4008 110.684 13.5286 107.836 13.5286C103.654 13.5286 100.915 15.6066 100.915 18.8092C100.915 22.1229 104.053 23.3244 106.863 24.0171C109.061 24.5259 109.854 24.9278 109.854 25.8001C109.854 26.6724 109.132 27.1128 107.765 27.1128C105.496 27.1128 103.402 26.2405 102.144 25.2913L100.198 28.8231C101.926 30.0246 104.413 30.9353 107.299 30.9353C112.127 30.9353 114.686 28.7119 114.686 25.5094C114.686 21.9775 111.838 20.9556 109.137 20.3014C106.649 19.7199 105.785 19.4292 105.785 18.5911C105.785 17.7488 106.544 17.3511 107.731 17.3511Z" fill="white"/>
<path d="M136.2 30.9396C135.127 30.9396 134.233 30.1614 134.04 29.1352C134.04 29.1267 134.036 29.1181 134.036 29.1096C134.028 29.0711 134.023 29.0326 134.019 28.9941C134.015 28.9343 134.011 28.8787 134.007 28.8488V28.5195C134.007 28.5195 134.007 28.5195 134.007 28.5153V21.3576C134.007 16.6585 130.945 13.5286 126.544 13.5286C124.38 13.5286 122.794 14.2939 121.788 15.3501V4.60071H117.064V30.6061H121.788V21.8664C121.788 19.643 123.231 17.8215 125.609 17.8215C127.773 17.8215 129.283 19.4976 129.283 22.0118V28.759H129.288C129.321 32.5944 132.404 35.6943 136.209 35.6943C136.213 35.6943 136.217 35.6943 136.221 35.6943V30.9396C136.213 30.9396 136.205 30.9396 136.2 30.9396Z" fill="white"/>
<path d="M157.287 13.5243C152.312 13.5243 148.315 17.2742 148.315 22.2298C148.315 27.1855 152.317 30.9353 157.287 30.9353C162.262 30.9353 166.26 27.1855 166.26 22.2298C166.26 17.2742 162.262 13.5243 157.287 13.5243ZM157.287 26.5997C154.909 26.5997 153.072 24.6713 153.072 22.2298C153.072 19.8268 154.909 17.86 157.287 17.86C159.703 17.86 161.503 19.8268 161.503 22.2298C161.507 24.6713 159.703 26.5997 157.287 26.5997Z" fill="white"/>
<path d="M178.085 13.5243C175.236 13.5243 173.181 15.0892 172.606 17.1288L172.426 13.8493H168.496V30.6018H173.219V22.1956C173.219 19.8268 174.842 18.078 177.472 18.078C178.227 18.078 178.663 18.2234 179.129 18.4073L179.528 13.6739C179.091 13.5628 178.588 13.5243 178.085 13.5243Z" fill="white"/>
<path d="M189.15 17.8599C190.878 17.8599 192.032 18.4799 192.791 18.9888L194.7 15.3843C193.726 14.6916 191.889 13.5286 188.609 13.5286C183.42 13.5286 179.49 17.3511 179.49 22.2341C179.49 27.1513 183.311 30.9396 188.609 30.9396C191.889 30.9396 193.655 29.6996 194.666 29.0454L192.791 25.4751C192.036 25.984 190.916 26.604 189.079 26.604C186.231 26.604 184.322 24.7825 184.322 22.2341C184.322 19.6857 186.264 17.8599 189.15 17.8599Z" fill="white"/>
<path d="M212.25 22.2683C212.25 17.24 209.008 13.5286 203.995 13.5286C198.915 13.5286 195.346 17.3511 195.346 22.2341C195.346 27.1513 199.201 30.9396 204.465 30.9396C208.249 30.9396 210.304 29.5543 211.315 28.6435L209.369 25.2186C208.647 25.8001 207.384 26.9289 204.973 26.9289C202.376 26.9289 200.539 25.4709 199.998 23.5425H212.179C212.179 23.5425 212.25 22.884 212.25 22.2683ZM200.031 20.481C200.572 18.403 202.12 17.3126 204.176 17.3126C206.051 17.3126 207.527 18.5868 207.745 20.481H200.031Z" fill="white"/>
<path d="M143.126 12.1432C143.126 9.62903 144.712 8.6456 146.335 8.6456C147.451 8.6456 148.03 9.00904 148.353 9.1929L150.157 5.62261C149.364 5.0753 147.992 4.30994 145.794 4.30994C141.109 4.30994 138.407 7.22176 138.407 11.8867V13.8535H136.109V17.8599H138.407V28.729H138.403C138.395 29.9434 137.426 30.9268 136.226 30.9396V35.69C140.031 35.6815 143.118 32.5687 143.135 28.7248H143.13V17.8599H148.105V13.8535H143.13V12.1432H143.126Z" fill="white"/>
<path d="M39.1657 14.0631C39.0063 14.4436 38.6455 14.6916 38.2428 14.6959C38.2386 14.6959 38.2387 14.6959 38.2387 14.6959H26.2419L15.8308 25.3085H13.0036L25.1262 12.9514C25.3149 12.7633 25.5708 12.6564 25.8267 12.6564H35.8267L25.4114 2.03956H3.41882L14.1194 12.9514C14.5095 13.349 14.5095 13.999 14.1236 14.3966L3.41882 25.3085H12.9994C12.5967 25.3085 12.236 25.5564 12.0766 25.9413C11.9214 26.3218 12.0095 26.7579 12.2947 27.0487L12.5841 27.3437H0.998501C0.595814 27.3437 0.230879 27.0957 0.0756769 26.7109C-0.0795253 26.3261 0.00856242 25.89 0.297994 25.5992L12.0011 13.6697L0.297994 1.74025C0.00856242 1.45377 -0.0795253 1.01764 0.0756769 0.632818C0.235074 0.247996 0.595814 0 0.998501 0H25.8225C26.0825 0 26.3384 0.106895 26.5272 0.29503L38.6581 12.6564L38.9475 12.9514C39.2328 13.2507 39.3209 13.6826 39.1657 14.0631Z" fill="white"/>
<path d="M51.1707 39.3672C51.0113 39.752 50.6464 40 50.2437 40H25.4113C25.1513 40 24.8954 39.8931 24.7108 39.705L12.5883 27.3479L12.2988 27.0529C12.0136 26.7621 11.9255 26.326 12.0807 25.9454C12.2401 25.5606 12.6008 25.3126 13.0035 25.3126H25.0002L35.4114 14.6958H38.2386C38.2428 14.6958 38.2428 14.6958 38.2428 14.6958L26.1202 27.0529C25.9189 27.2496 25.6714 27.3479 25.4113 27.3479H15.4155L25.8308 37.9647H47.8276L37.1228 27.0529C36.934 26.8605 36.8334 26.6039 36.8334 26.3303C36.8334 26.0566 36.9382 25.8001 37.1228 25.6076L47.8276 14.6958H38.2428C38.6455 14.6915 39.0062 14.4435 39.1656 14.063C39.3166 13.6824 39.2327 13.2506 38.9475 12.9513L38.658 12.6562H50.2395C50.6422 12.6562 51.0071 12.9042 51.1665 13.2848C51.3217 13.6696 51.2336 14.1057 50.9484 14.4008L39.2453 26.3303L50.9484 38.2597C51.2336 38.5505 51.3217 38.9866 51.1707 39.3672Z" fill="white"/>
<path d="M230.118 24.0187V12.8952H233.746C234.608 12.8952 235.318 13.0382 235.875 13.3243C236.433 13.6103 236.843 13.997 237.106 14.4843C237.379 14.9716 237.516 15.5225 237.516 16.1369C237.516 16.7408 237.384 17.2863 237.122 17.7737C236.859 18.261 236.449 18.6529 235.891 18.9496C235.334 19.2356 234.619 19.3786 233.746 19.3786H231.443V24.0187H230.118ZM231.443 18.2504H233.714C234.598 18.2504 235.223 18.065 235.591 17.6942C235.97 17.3128 236.159 16.7937 236.159 16.1369C236.159 15.4695 235.97 14.9504 235.591 14.5796C235.223 14.1982 234.598 14.0076 233.714 14.0076H231.443V18.2504Z" fill="white"/>
<path d="M242.229 24.2094C241.483 24.2094 240.82 24.0399 240.242 23.7009C239.663 23.3513 239.206 22.8693 238.869 22.2548C238.543 21.6404 238.38 20.9147 238.38 20.0778C238.38 19.2515 238.543 18.5311 238.869 17.9167C239.195 17.2916 239.648 16.8096 240.226 16.4706C240.815 16.121 241.493 15.9462 242.261 15.9462C243.018 15.9462 243.67 16.121 244.217 16.4706C244.774 16.8096 245.2 17.2599 245.495 17.8213C245.789 18.3828 245.936 18.9866 245.936 19.6329C245.936 19.7494 245.931 19.8659 245.921 19.9825C245.921 20.099 245.921 20.2314 245.921 20.3797H239.69C239.721 20.9836 239.858 21.4868 240.1 21.8893C240.352 22.2813 240.662 22.5779 241.03 22.7792C241.409 22.9805 241.809 23.0811 242.229 23.0811C242.776 23.0811 243.234 22.954 243.602 22.6998C243.97 22.4455 244.238 22.1012 244.406 21.6669H245.715C245.505 22.3978 245.1 23.007 244.501 23.4943C243.912 23.971 243.155 24.2094 242.229 24.2094ZM242.229 17.0745C241.598 17.0745 241.036 17.2704 240.541 17.6624C240.058 18.0438 239.779 18.6053 239.705 19.3468H244.627C244.595 18.637 244.354 18.0809 243.901 17.6783C243.449 17.2757 242.892 17.0745 242.229 17.0745Z" fill="white"/>
<path d="M247.693 24.0187V16.1369H248.891L248.97 17.5512C249.223 17.0533 249.585 16.6613 250.059 16.3753C250.532 16.0892 251.068 15.9462 251.668 15.9462C252.593 15.9462 253.329 16.2323 253.876 16.8043C254.433 17.3658 254.712 18.2345 254.712 19.4104V24.0187H253.387V19.5534C253.387 17.9114 252.714 17.0904 251.368 17.0904C250.695 17.0904 250.132 17.3393 249.68 17.8372C249.238 18.3245 249.018 19.0237 249.018 19.9348V24.0187H247.693Z" fill="white"/>
<path d="M259.717 24.2094C258.781 24.2094 258.003 23.971 257.382 23.4943C256.762 23.0176 256.399 22.3714 256.294 21.5556H257.65C257.734 21.9688 257.95 22.329 258.297 22.6362C258.655 22.9328 259.133 23.0811 259.732 23.0811C260.29 23.0811 260.7 22.9646 260.963 22.7315C261.226 22.4879 261.357 22.2019 261.357 21.8735C261.357 21.3967 261.184 21.0789 260.837 20.92C260.5 20.7611 260.022 20.6181 259.401 20.491C258.981 20.4062 258.56 20.2844 258.139 20.1255C257.719 19.9666 257.366 19.7441 257.082 19.4581C256.798 19.1614 256.656 18.7748 256.656 18.298C256.656 17.6094 256.909 17.048 257.414 16.6136C257.929 16.1687 258.623 15.9462 259.496 15.9462C260.327 15.9462 261.005 16.1581 261.531 16.5818C262.067 16.995 262.377 17.5883 262.461 18.3616H261.152C261.1 17.959 260.926 17.6465 260.632 17.4241C260.348 17.191 259.964 17.0745 259.48 17.0745C259.007 17.0745 258.639 17.1751 258.376 17.3764C258.123 17.5777 257.997 17.8425 257.997 18.1709C257.997 18.4887 258.16 18.7377 258.486 18.9178C258.823 19.0979 259.275 19.2515 259.843 19.3786C260.327 19.4845 260.784 19.617 261.215 19.7759C261.657 19.9242 262.014 20.152 262.288 20.4592C262.572 20.7558 262.714 21.1902 262.714 21.7622C262.724 22.472 262.456 23.06 261.909 23.5261C261.373 23.9816 260.642 24.2094 259.717 24.2094Z" fill="white"/>
<path d="M268.124 24.2094C267.378 24.2094 266.715 24.0399 266.137 23.7009C265.558 23.3513 265.101 22.8693 264.764 22.2548C264.438 21.6404 264.275 20.9147 264.275 20.0778C264.275 19.2515 264.438 18.5311 264.764 17.9167C265.09 17.2916 265.543 16.8096 266.121 16.4706C266.71 16.121 267.388 15.9462 268.156 15.9462C268.913 15.9462 269.565 16.121 270.112 16.4706C270.669 16.8096 271.095 17.2599 271.39 17.8213C271.684 18.3828 271.831 18.9866 271.831 19.6329C271.831 19.7494 271.826 19.8659 271.816 19.9825C271.816 20.099 271.816 20.2314 271.816 20.3797H265.585C265.616 20.9836 265.753 21.4868 265.995 21.8893C266.247 22.2813 266.557 22.5779 266.926 22.7792C267.304 22.9805 267.704 23.0811 268.124 23.0811C268.671 23.0811 269.129 22.954 269.497 22.6998C269.865 22.4455 270.133 22.1012 270.301 21.6669H271.61C271.4 22.3978 270.995 23.007 270.396 23.4943C269.807 23.971 269.05 24.2094 268.124 24.2094ZM268.124 17.0745C267.493 17.0745 266.931 17.2704 266.437 17.6624C265.953 18.0438 265.674 18.6053 265.6 19.3468H270.522C270.491 18.637 270.249 18.0809 269.796 17.6783C269.344 17.2757 268.787 17.0745 268.124 17.0745Z" fill="white"/>
<path d="M280.854 21.5397C280.412 21.5397 280.007 21.4815 279.639 21.3649L278.851 22.1118C278.966 22.1966 279.108 22.2707 279.277 22.3343C279.455 22.3872 279.708 22.4402 280.034 22.4932C280.36 22.5356 280.817 22.5832 281.406 22.6362C282.458 22.7104 283.21 22.954 283.662 23.3672C284.114 23.7803 284.34 24.3206 284.34 24.988C284.34 25.4436 284.214 25.8779 283.961 26.2911C283.72 26.7042 283.341 27.0432 282.826 27.3081C282.321 27.5729 281.669 27.7053 280.87 27.7053C280.165 27.7053 279.539 27.61 278.993 27.4193C278.446 27.2392 278.02 26.9585 277.715 26.5771C277.41 26.2063 277.257 25.7349 277.257 25.1628C277.257 24.8662 277.336 24.5431 277.494 24.1935C277.652 23.8545 277.946 23.5314 278.377 23.2242C278.146 23.1288 277.946 23.0282 277.778 22.9222C277.62 22.8057 277.473 22.6786 277.336 22.5409V22.1754L278.677 20.8406C278.057 20.3109 277.746 19.6117 277.746 18.743C277.746 18.2239 277.867 17.7525 278.109 17.3287C278.351 16.905 278.703 16.5713 279.166 16.3276C279.629 16.0733 280.191 15.9462 280.854 15.9462C281.306 15.9462 281.716 16.0098 282.084 16.1369H284.971V17.138L283.504 17.2016C283.809 17.6465 283.961 18.1603 283.961 18.743C283.961 19.2621 283.835 19.7335 283.583 20.1573C283.341 20.581 282.989 20.92 282.526 21.1743C282.074 21.4179 281.516 21.5397 280.854 21.5397ZM280.854 20.4433C281.411 20.4433 281.853 20.3003 282.179 20.0142C282.515 19.7176 282.684 19.2939 282.684 18.743C282.684 18.2027 282.515 17.7895 282.179 17.5035C281.853 17.2069 281.411 17.0586 280.854 17.0586C280.286 17.0586 279.834 17.2069 279.497 17.5035C279.171 17.7895 279.008 18.2027 279.008 18.743C279.008 19.2939 279.171 19.7176 279.497 20.0142C279.834 20.3003 280.286 20.4433 280.854 20.4433ZM278.551 25.0357C278.551 25.5654 278.772 25.9574 279.213 26.2116C279.655 26.4765 280.207 26.6089 280.87 26.6089C281.522 26.6089 282.042 26.4659 282.431 26.1798C282.831 25.8938 283.031 25.5124 283.031 25.0357C283.031 24.6967 282.894 24.4001 282.621 24.1458C282.347 23.9022 281.842 23.7591 281.106 23.7168C280.528 23.6744 280.028 23.6214 279.608 23.5579C279.177 23.7909 278.893 24.0399 278.756 24.3047C278.619 24.5802 278.551 24.8238 278.551 25.0357Z" fill="white"/>
<path d="M286.466 24.0187V16.1369H287.665L287.775 17.6465C288.017 17.1274 288.385 16.7143 288.879 16.4071C289.373 16.0998 289.983 15.9462 290.709 15.9462V17.3446H290.346C289.884 17.3446 289.458 17.4294 289.069 17.5989C288.679 17.7578 288.369 18.0332 288.138 18.4252C287.906 18.8171 287.791 19.3574 287.791 20.046V24.0187H286.466Z" fill="white"/>
<path d="M294.799 24.2094C294.147 24.2094 293.605 24.0981 293.174 23.8757C292.743 23.6532 292.422 23.3566 292.212 22.9858C292.002 22.615 291.897 22.2125 291.897 21.7781C291.897 20.973 292.201 20.3532 292.811 19.9189C293.421 19.4845 294.252 19.2674 295.304 19.2674H297.418V19.172C297.418 18.4834 297.239 17.9643 296.881 17.6147C296.524 17.2546 296.045 17.0745 295.446 17.0745C294.93 17.0745 294.484 17.2069 294.105 17.4717C293.737 17.726 293.506 18.1021 293.411 18.6H292.054C292.107 18.0279 292.296 17.5459 292.622 17.1539C292.959 16.7619 293.374 16.4653 293.868 16.264C294.363 16.0522 294.888 15.9462 295.446 15.9462C296.539 15.9462 297.36 16.2428 297.907 16.8361C298.464 17.4188 298.743 18.1974 298.743 19.172V24.0187H297.559L297.481 22.6044C297.26 23.0494 296.934 23.4307 296.503 23.7486C296.082 24.0558 295.514 24.2094 294.799 24.2094ZM295.004 23.0811C295.509 23.0811 295.94 22.9487 296.298 22.6839C296.666 22.419 296.944 22.0747 297.134 21.651C297.323 21.2272 297.418 20.7823 297.418 20.3162V20.3003H295.414C294.636 20.3003 294.084 20.438 293.758 20.7134C293.442 20.9783 293.285 21.312 293.285 21.7145C293.285 22.1277 293.432 22.4614 293.726 22.7157C294.031 22.9593 294.457 23.0811 295.004 23.0811Z" fill="white"/>
<path d="M300.73 24.0187V16.1369H301.929L302.008 17.5512C302.26 17.0533 302.623 16.6613 303.096 16.3753C303.57 16.0892 304.106 15.9462 304.705 15.9462C305.631 15.9462 306.367 16.2323 306.914 16.8043C307.471 17.3658 307.75 18.2345 307.75 19.4104V24.0187H306.425V19.5534C306.425 17.9114 305.752 17.0904 304.406 17.0904C303.733 17.0904 303.17 17.3393 302.718 17.8372C302.276 18.3245 302.055 19.0237 302.055 19.9348V24.0187H300.73Z" fill="white"/>
<path d="M313.307 24.2094C312.528 24.2094 311.845 24.0293 311.256 23.6691C310.678 23.3089 310.225 22.8163 309.899 22.1913C309.584 21.5662 309.426 20.8564 309.426 20.0619C309.426 19.2674 309.589 18.5629 309.915 17.9484C310.241 17.3234 310.693 16.8361 311.272 16.4865C311.85 16.1263 312.534 15.9462 313.322 15.9462C313.964 15.9462 314.532 16.0786 315.026 16.3435C315.52 16.6083 315.904 16.9791 316.178 17.4558V12.5774H317.503V24.0187H316.304L316.178 22.7157C315.925 23.097 315.562 23.4413 315.089 23.7486C314.616 24.0558 314.022 24.2094 313.307 24.2094ZM313.449 23.0494C313.974 23.0494 314.437 22.9275 314.837 22.6839C315.247 22.4296 315.562 22.08 315.783 21.6351C316.015 21.1901 316.13 20.6711 316.13 20.0778C316.13 19.4845 316.015 18.9655 315.783 18.5205C315.562 18.0756 315.247 17.7313 314.837 17.4876C314.437 17.2334 313.974 17.1062 313.449 17.1062C312.933 17.1062 312.471 17.2334 312.06 17.4876C311.661 17.7313 311.345 18.0756 311.114 18.5205C310.893 18.9655 310.783 19.4845 310.783 20.0778C310.783 20.6711 310.893 21.1901 311.114 21.6351C311.345 22.08 311.661 22.4296 312.06 22.6839C312.471 22.9275 312.933 23.0494 313.449 23.0494Z" fill="white"/>
<path d="M323.18 24.2094C322.434 24.2094 321.771 24.0399 321.193 23.7009C320.614 23.3513 320.157 22.8693 319.82 22.2548C319.494 21.6404 319.331 20.9147 319.331 20.0778C319.331 19.2515 319.494 18.5311 319.82 17.9167C320.146 17.2916 320.598 16.8096 321.177 16.4706C321.766 16.121 322.444 15.9462 323.212 15.9462C323.969 15.9462 324.621 16.121 325.168 16.4706C325.725 16.8096 326.151 17.2599 326.445 17.8213C326.74 18.3828 326.887 18.9866 326.887 19.6329C326.887 19.7494 326.882 19.8659 326.871 19.9825C326.871 20.099 326.871 20.2314 326.871 20.3797H320.641C320.672 20.9836 320.809 21.4868 321.051 21.8893C321.303 22.2813 321.613 22.5779 321.981 22.7792C322.36 22.9805 322.76 23.0811 323.18 23.0811C323.727 23.0811 324.184 22.954 324.553 22.6998C324.921 22.4455 325.189 22.1012 325.357 21.6669H326.666C326.456 22.3978 326.051 23.007 325.452 23.4943C324.863 23.971 324.106 24.2094 323.18 24.2094ZM323.18 17.0745C322.549 17.0745 321.987 17.2704 321.492 17.6624C321.009 18.0438 320.73 18.6053 320.656 19.3468H325.578C325.546 18.637 325.304 18.0809 324.852 17.6783C324.4 17.2757 323.843 17.0745 323.18 17.0745Z" fill="white"/>
<path d="M329.101 24.0981C328.838 24.0981 328.617 24.0134 328.438 23.8439C328.27 23.6638 328.186 23.4466 328.186 23.1924C328.186 22.9381 328.27 22.7263 328.438 22.5567C328.617 22.3767 328.838 22.2866 329.101 22.2866C329.353 22.2866 329.564 22.3767 329.732 22.5567C329.911 22.7263 330 22.9381 330 23.1924C330 23.4466 329.911 23.6638 329.732 23.8439C329.564 24.0134 329.353 24.0981 329.101 24.0981Z" fill="white"/>
</svg>
