<svg width="24" height="24" viewBox="0 0 24 24" fill="none" xmlns="http://www.w3.org/2000/svg">
<g clip-path="url(#clip0_33_780)">
<path d="M13.38 18.9992C13.02 19.9992 11.19 20.2192 9.87 19.4192C8.34 18.4692 7 15.9992 6.42 15.6392C5.63 15.1592 2 15.1092 2 15.1092L5.77 5.19922C5.77 5.19922 8.86 6.92922 10.86 6.46922C11.4478 6.3005 11.9954 6.01479 12.47 5.62922" stroke="#4D5566" stroke-width="2" stroke-linecap="round" stroke-linejoin="round"/>
<path d="M15.5296 17.3193C15.6364 17.6333 15.6354 17.974 15.5267 18.2874C15.418 18.6007 15.2079 18.8689 14.9296 19.0493C13.5296 19.8093 12.0296 17.7793 11.5996 17.4793" stroke="#4D5566" stroke-width="2" stroke-linecap="round" stroke-linejoin="round"/>
<path d="M17.9999 15.9994C17.8499 17.9994 16.3399 17.9994 15.8099 17.5694C15.2799 17.1394 13.4199 15.3594 13.4199 15.3594" stroke="#4D5566" stroke-width="2" stroke-linecap="round" stroke-linejoin="round"/>
<path d="M14.1904 8.68945C15.6904 10.0595 19.1304 12.2795 19.5804 14.0695C20.2404 16.7495 18.4704 16.4395 18.4704 16.4395L14.9104 12.8895" stroke="#4D5566" stroke-width="2" stroke-linecap="round" stroke-linejoin="round"/>
<path d="M14.7204 8.24965C14.7204 8.24965 10.8404 11.8497 9.72039 10.3197C8.60039 8.78965 12.0004 6.06965 13.1204 5.07965C13.6004 4.64965 19.8404 6.07965 19.8404 6.07965L22.3904 13.8397L19.6304 14.2997" stroke="#4D5566" stroke-width="2" stroke-linecap="round" stroke-linejoin="round"/>
</g>
<defs>
<clipPath id="clip0_33_780">
<rect width="22.39" height="16.88" fill="white" transform="translate(1 4)"/>
</clipPath>
</defs>
</svg>
